<svg xmlns="http://www.w3.org/2000/svg" viewBox="0 0 256 256">
  <defs>
    <linearGradient id="a" x1="63.3" y1="47" x2="241.7" y2="200.3" gradientUnits="userSpaceOnUse">
      <stop offset="0" stop-color="#0C59A4"/>
      <stop offset="1" stop-color="#114A8B"/>
    </linearGradient>
    <linearGradient id="b" x1="157.5" y1="89.3" x2="45.9" y2="210.8" gradientUnits="userSpaceOnUse">
      <stop offset="0" stop-color="#1B9DE2"/>
      <stop offset=".16" stop-color="#1595DF"/>
      <stop offset=".67" stop-color="#0680D7"/>
      <stop offset="1" stop-color="#0078D4"/>
    </linearGradient>
  </defs>
  <path d="M231 190.5c-3.4 1.8-7 3.4-10.7 4.7a95.1 95.1 0 0 1-33.4 6.1c-44 0-82.4-30.3-82.4-69.1a29.5 29.5 0 0 1 14.1-25C78 109.8 50.4 159.3 50.4 183.5c0 68.4 63 73.9 76.6 73.9 7.2 0 18-1.8 24.8-3.6l1.2-.4a128.7 128.7 0 0 0 55.4-35.4 4 4 0 0 0-2.8-6.7l-74.6.2" fill="url(#b)"/>
  <path d="M109.4 230.4a71.8 71.8 0 0 1-22.3-31.4 73.5 73.5 0 0 1 7.5-62.6A127.5 127.5 0 0 1 205.8 71C191 37.8 156.4 14 116 14A116 116 0 0 0 14 166.9c.6 34.4 13.6 55 19.3 63.4a128.1 128.1 0 0 0 76 52.5z" fill="url(#a)"/>
  <path d="M231 190.5a56.7 56.7 0 0 0 5.8-55.8A76 76 0 0 0 205.8 71a98 98 0 0 0-86 12.6 29.5 29.5 0 0 0-15.3 23.5c0 38.8 38.5 69.1 82.4 69.1a95.1 95.1 0 0 0 33.4-6.1 4 4 0 0 1 5 2 4 4 0 0 1-2.2 4.7c-2.6 1.4-5.2 2.7-7.9 3.8a100 100 0 0 1-37 7.1c-47.2 0-88.3-30.9-93.3-71.6" fill="url(#b)" opacity=".35"/>
</svg>
